<svg width="114" height="71" viewBox="0 0 114 71" fill="none" xmlns="http://www.w3.org/2000/svg">
<g clip-path="url(#clip0_239_1638)">
<path d="M94.3584 22.652C94.541 21.7692 94.7173 20.8871 94.8853 20.0116C97.3895 6.96254 78.7723 2.53542 74.8466 18.1497C74.4113 19.8825 74.0393 21.4228 73.716 22.8258C74.3008 18.5998 74.7406 14.6961 74.9574 11.5068C75.833 -1.37273 54.9066 -4.86389 51.6697 8.42505C50.7216 12.3172 49.91 17.5595 49.2611 23.3872C49.3103 19.0381 49.3014 15.4218 49.1886 13.7537C48.5767 4.76117 41.9656 2.8101 37.0733 2.8101C28.9663 2.8101 25.6589 9.98791 25.6589 16.3245C25.6589 16.7059 25.6706 17.7363 25.7093 19.2731C21.0953 17.3444 16.3016 20.4294 13.8433 26.1306C11.3714 31.8629 11.3778 40.8509 15.4186 46.6986C18.8411 51.6523 24.7989 53.4331 28.0938 50.594C29.9148 62.412 33.3414 65.339 37.1946 65.7913C42.0816 66.365 45.5812 63.589 47.3447 57.8041C47.6395 64.6613 49.4004 70.3875 55.9322 70.5921C60.6582 70.7404 65.5791 63.6891 67.9024 54.0763C68.2323 52.7114 68.5695 51.2457 68.9086 49.7052C68.1147 58.2072 70.9685 61.5983 74.6173 62.3445C80.9372 63.6365 84.4122 57.8785 87.0465 50.3486C94.1473 56.5564 101.831 49.4493 105.602 41.9436C107.423 38.317 109.143 33.7091 109.947 28.5348C111.562 18.1417 100.914 14.3719 94.3584 22.652Z" fill="#DADADA"/>
<path d="M13.2995 33.9498L18.7524 24.8084H15.9958C15.0263 24.8084 14.3294 25.3194 13.8449 26.1314L10.0578 32.446C9.48221 33.3783 8.69473 33.739 7.81624 33.739H3.96875V26.4021C3.96875 25.4997 3.2719 24.8084 2.39341 24.8084H0V46.6997H3.96875V37.3777H7.1194C7.90687 37.3777 8.63391 37.3177 9.27033 37.137L15.4202 46.6997H20.1764L12.5724 35.0019C12.8451 34.6713 13.057 34.3407 13.2995 33.9498ZM36.4752 33.739H25.7809V26.5524C25.7809 25.4997 25.0841 24.8084 24.0239 24.8084H21.8126V46.6997H25.7809V37.4382H36.4752V46.6997H40.4438V24.8084H36.4752V33.739ZM50.4412 24.8084L41.7163 46.6997H45.7455L47.9266 40.956H57.4087L59.045 45.2864C59.3781 46.1884 60.1353 46.6997 61.0444 46.6997H63.771L55.0158 24.8084H50.4412ZM73.2834 24.8084L64.4979 46.6997H67.1032C68.0123 46.6997 68.7695 46.1884 69.1028 45.2864L70.7082 40.956H80.1909L82.372 46.6997H86.5526L77.8277 24.8084H73.2834ZM95.9443 24.8084H87.7646V46.6997H95.9443C102.942 46.6997 107.365 42.0687 107.365 35.7237C107.365 29.3187 103.215 24.8084 95.9443 24.8084ZM112.243 24.8084H110.031V46.6997H114V26.5524C114 25.4997 113.303 24.8084 112.243 24.8084ZM49.0778 37.4981L52.6526 28.3263L56.2274 37.4981H49.0778ZM71.8901 37.4981L75.4649 28.3263L79.0397 37.4981H71.8901ZM95.8833 43.001H91.7635V28.4467H95.9443C100.7 28.4467 103.336 31.2434 103.336 35.7237C103.336 40.2644 100.67 43.001 95.8833 43.001Z" fill="#989898"/>
</g>
<defs>
<clipPath id="clip0_239_1638">
<rect width="113.636" height="70.4965" fill="white" transform="scale(1.0032)"/>
</clipPath>
</defs>
</svg>
